<mxfile host="Electron" agent="Mozilla/5.0 (Windows NT 10.0; Win64; x64) AppleWebKit/537.36 (KHTML, like Gecko) draw.io/25.0.2 Chrome/128.0.6613.186 Electron/32.2.5 Safari/537.36" version="25.0.2">
  <diagram name="Seite-1" id="StMfXcjtnDYbUWkohRju">
    <mxGraphModel dx="1100" dy="743" grid="1" gridSize="10" guides="1" tooltips="1" connect="1" arrows="1" fold="1" page="1" pageScale="1" pageWidth="1169" pageHeight="827" math="0" shadow="0">
      <root>
        <mxCell id="0" />
        <mxCell id="1" parent="0" />
        <mxCell id="rmQY1VXBT_kEVUjzrUSg-19" value="" style="ellipse;whiteSpace=wrap;html=1;" vertex="1" parent="1">
          <mxGeometry x="310" y="80" width="120" height="270" as="geometry" />
        </mxCell>
        <mxCell id="rmQY1VXBT_kEVUjzrUSg-18" value="" style="ellipse;whiteSpace=wrap;html=1;" vertex="1" parent="1">
          <mxGeometry x="110" y="80" width="120" height="270" as="geometry" />
        </mxCell>
        <mxCell id="rmQY1VXBT_kEVUjzrUSg-2" value="&lt;b&gt;&lt;font style=&quot;font-size: 27px;&quot;&gt;a&lt;/font&gt;&lt;/b&gt;" style="text;html=1;align=center;verticalAlign=middle;whiteSpace=wrap;rounded=0;" vertex="1" parent="1">
          <mxGeometry x="140" y="110" width="60" height="30" as="geometry" />
        </mxCell>
        <mxCell id="rmQY1VXBT_kEVUjzrUSg-3" value="&lt;b&gt;&lt;font style=&quot;font-size: 27px;&quot;&gt;b&lt;/font&gt;&lt;/b&gt;" style="text;html=1;align=center;verticalAlign=middle;whiteSpace=wrap;rounded=0;" vertex="1" parent="1">
          <mxGeometry x="140" y="150" width="60" height="30" as="geometry" />
        </mxCell>
        <mxCell id="rmQY1VXBT_kEVUjzrUSg-4" value="&lt;b&gt;&lt;font style=&quot;font-size: 27px;&quot;&gt;c&lt;/font&gt;&lt;/b&gt;" style="text;html=1;align=center;verticalAlign=middle;whiteSpace=wrap;rounded=0;" vertex="1" parent="1">
          <mxGeometry x="140" y="190" width="60" height="30" as="geometry" />
        </mxCell>
        <mxCell id="rmQY1VXBT_kEVUjzrUSg-5" value="&lt;b&gt;&lt;font style=&quot;font-size: 27px;&quot;&gt;d&lt;/font&gt;&lt;/b&gt;" style="text;html=1;align=center;verticalAlign=middle;whiteSpace=wrap;rounded=0;" vertex="1" parent="1">
          <mxGeometry x="140" y="230" width="60" height="30" as="geometry" />
        </mxCell>
        <mxCell id="rmQY1VXBT_kEVUjzrUSg-6" value="&lt;b&gt;&lt;font style=&quot;font-size: 27px;&quot;&gt;e&lt;/font&gt;&lt;/b&gt;" style="text;html=1;align=center;verticalAlign=middle;whiteSpace=wrap;rounded=0;" vertex="1" parent="1">
          <mxGeometry x="140" y="270" width="60" height="30" as="geometry" />
        </mxCell>
        <mxCell id="rmQY1VXBT_kEVUjzrUSg-8" value="&lt;b&gt;&lt;font style=&quot;font-size: 27px;&quot;&gt;a&lt;/font&gt;&lt;/b&gt;" style="text;html=1;align=center;verticalAlign=middle;whiteSpace=wrap;rounded=0;" vertex="1" parent="1">
          <mxGeometry x="340" y="110" width="60" height="30" as="geometry" />
        </mxCell>
        <mxCell id="rmQY1VXBT_kEVUjzrUSg-9" value="&lt;b&gt;&lt;font style=&quot;font-size: 27px;&quot;&gt;b&lt;/font&gt;&lt;/b&gt;" style="text;html=1;align=center;verticalAlign=middle;whiteSpace=wrap;rounded=0;" vertex="1" parent="1">
          <mxGeometry x="340" y="150" width="60" height="30" as="geometry" />
        </mxCell>
        <mxCell id="rmQY1VXBT_kEVUjzrUSg-10" value="&lt;b&gt;&lt;font style=&quot;font-size: 27px;&quot;&gt;c&lt;/font&gt;&lt;/b&gt;" style="text;html=1;align=center;verticalAlign=middle;whiteSpace=wrap;rounded=0;" vertex="1" parent="1">
          <mxGeometry x="340" y="190" width="60" height="30" as="geometry" />
        </mxCell>
        <mxCell id="rmQY1VXBT_kEVUjzrUSg-11" value="&lt;b&gt;&lt;font style=&quot;font-size: 27px;&quot;&gt;d&lt;/font&gt;&lt;/b&gt;" style="text;html=1;align=center;verticalAlign=middle;whiteSpace=wrap;rounded=0;" vertex="1" parent="1">
          <mxGeometry x="340" y="230" width="60" height="30" as="geometry" />
        </mxCell>
        <mxCell id="rmQY1VXBT_kEVUjzrUSg-12" value="&lt;b&gt;&lt;font style=&quot;font-size: 27px;&quot;&gt;e&lt;/font&gt;&lt;/b&gt;" style="text;html=1;align=center;verticalAlign=middle;whiteSpace=wrap;rounded=0;" vertex="1" parent="1">
          <mxGeometry x="340" y="270" width="60" height="30" as="geometry" />
        </mxCell>
        <mxCell id="rmQY1VXBT_kEVUjzrUSg-13" value="" style="endArrow=classic;html=1;rounded=0;" edge="1" parent="1">
          <mxGeometry width="50" height="50" relative="1" as="geometry">
            <mxPoint x="180" y="125" as="sourcePoint" />
            <mxPoint x="360" y="285" as="targetPoint" />
          </mxGeometry>
        </mxCell>
        <mxCell id="rmQY1VXBT_kEVUjzrUSg-14" value="" style="endArrow=classic;html=1;rounded=0;entryX=0.333;entryY=0.667;entryDx=0;entryDy=0;entryPerimeter=0;exitX=0.667;exitY=0.667;exitDx=0;exitDy=0;exitPerimeter=0;" edge="1" parent="1" source="rmQY1VXBT_kEVUjzrUSg-6" target="rmQY1VXBT_kEVUjzrUSg-8">
          <mxGeometry width="50" height="50" relative="1" as="geometry">
            <mxPoint x="230" y="240" as="sourcePoint" />
            <mxPoint x="580" y="410" as="targetPoint" />
          </mxGeometry>
        </mxCell>
        <mxCell id="rmQY1VXBT_kEVUjzrUSg-15" value="" style="endArrow=classic;html=1;rounded=0;exitX=0.667;exitY=0.667;exitDx=0;exitDy=0;exitPerimeter=0;entryX=0.333;entryY=0.333;entryDx=0;entryDy=0;entryPerimeter=0;" edge="1" parent="1" source="rmQY1VXBT_kEVUjzrUSg-3" target="rmQY1VXBT_kEVUjzrUSg-10">
          <mxGeometry width="50" height="50" relative="1" as="geometry">
            <mxPoint x="530" y="460" as="sourcePoint" />
            <mxPoint x="580" y="410" as="targetPoint" />
          </mxGeometry>
        </mxCell>
        <mxCell id="rmQY1VXBT_kEVUjzrUSg-16" value="" style="endArrow=classic;html=1;rounded=0;exitX=0.667;exitY=0.333;exitDx=0;exitDy=0;exitPerimeter=0;entryX=0.333;entryY=0.667;entryDx=0;entryDy=0;entryPerimeter=0;" edge="1" parent="1" source="rmQY1VXBT_kEVUjzrUSg-4" target="rmQY1VXBT_kEVUjzrUSg-9">
          <mxGeometry width="50" height="50" relative="1" as="geometry">
            <mxPoint x="530" y="460" as="sourcePoint" />
            <mxPoint x="580" y="410" as="targetPoint" />
          </mxGeometry>
        </mxCell>
        <mxCell id="rmQY1VXBT_kEVUjzrUSg-17" value="" style="endArrow=classic;html=1;rounded=0;exitX=0.833;exitY=0.333;exitDx=0;exitDy=0;exitPerimeter=0;" edge="1" parent="1" source="rmQY1VXBT_kEVUjzrUSg-5" target="rmQY1VXBT_kEVUjzrUSg-11">
          <mxGeometry width="50" height="50" relative="1" as="geometry">
            <mxPoint x="530" y="460" as="sourcePoint" />
            <mxPoint x="330" y="240" as="targetPoint" />
          </mxGeometry>
        </mxCell>
        <mxCell id="rmQY1VXBT_kEVUjzrUSg-20" value="&lt;font style=&quot;font-size: 26px;&quot;&gt;&lt;b style=&quot;&quot;&gt;A&lt;/b&gt;&lt;/font&gt;" style="text;html=1;align=center;verticalAlign=middle;whiteSpace=wrap;rounded=0;" vertex="1" parent="1">
          <mxGeometry x="140" y="30" width="60" height="30" as="geometry" />
        </mxCell>
        <mxCell id="rmQY1VXBT_kEVUjzrUSg-21" value="&lt;font style=&quot;font-size: 26px;&quot;&gt;&lt;b style=&quot;&quot;&gt;A&lt;/b&gt;&lt;/font&gt;" style="text;html=1;align=center;verticalAlign=middle;whiteSpace=wrap;rounded=0;" vertex="1" parent="1">
          <mxGeometry x="340" y="30" width="60" height="30" as="geometry" />
        </mxCell>
        <mxCell id="rmQY1VXBT_kEVUjzrUSg-23" value="" style="endArrow=classic;html=1;rounded=0;exitX=1;exitY=0.5;exitDx=0;exitDy=0;" edge="1" parent="1" source="rmQY1VXBT_kEVUjzrUSg-20" target="rmQY1VXBT_kEVUjzrUSg-21">
          <mxGeometry width="50" height="50" relative="1" as="geometry">
            <mxPoint x="80" y="250" as="sourcePoint" />
            <mxPoint x="130" y="200" as="targetPoint" />
          </mxGeometry>
        </mxCell>
        <mxCell id="rmQY1VXBT_kEVUjzrUSg-24" value="&lt;font style=&quot;font-size: 26px;&quot;&gt;&lt;b style=&quot;&quot;&gt;f&lt;/b&gt;&lt;/font&gt;" style="text;html=1;align=center;verticalAlign=middle;whiteSpace=wrap;rounded=0;" vertex="1" parent="1">
          <mxGeometry x="230" y="10" width="60" height="30" as="geometry" />
        </mxCell>
      </root>
    </mxGraphModel>
  </diagram>
</mxfile>
